<?xml version="1.0"?>
<svg xmlns="http://www.w3.org/2000/svg" xmlns:xlink="http://www.w3.org/1999/xlink" xmlns:svgjs="http://svgjs.com/svgjs" version="1.1" width="512" height="512" x="0" y="0" viewBox="0 0 512 512" style="enable-background:new 0 0 512 512" xml:space="preserve" class=""><g><g xmlns="http://www.w3.org/2000/svg"><g><path d="m147.748 160.616h-51.14c-3.144-9.381-12.011-16.163-22.437-16.163-13.047 0-23.663 10.615-23.663 23.663s10.615 23.663 23.663 23.663c10.426 0 19.293-6.781 22.437-16.163h51.14c1.244 18.126 6.957 35.04 16.046 49.65h-23.664c-3.144-9.381-12.011-16.163-22.437-16.163-13.047 0-23.663 10.615-23.663 23.663s10.615 23.663 23.663 23.663c10.426 0 19.293-6.781 22.437-16.163h34.889c19.889 22.299 48.821 36.366 80.981 36.366s61.092-14.067 80.981-36.366h34.889c3.144 9.381 12.011 16.163 22.437 16.163 13.047 0 23.663-10.615 23.663-23.663s-10.615-23.663-23.663-23.663c-10.426 0-19.293 6.781-22.437 16.163h-23.663c9.088-14.61 14.802-31.524 16.046-49.65h51.14c3.144 9.381 12.011 16.163 22.437 16.163 13.047 0 23.663-10.615 23.663-23.663s-10.615-23.663-23.663-23.663c-10.426 0-19.293 6.781-22.437 16.163h-51.14c-1.244-18.126-6.957-35.04-16.046-49.65h23.663c3.144 9.381 12.011 16.163 22.437 16.163 13.047 0 23.663-10.615 23.663-23.663s-10.615-23.663-23.663-23.663c-10.426 0-19.293 6.781-22.437 16.163h-34.89c-19.888-22.299-48.82-36.366-80.98-36.366s-61.092 14.067-80.98 36.366h-34.89c-3.144-9.381-12.011-16.163-22.437-16.163-13.047 0-23.663 10.615-23.663 23.663s10.615 23.663 23.663 23.663c10.426 0 19.293-6.781 22.437-16.163h23.663c-9.088 14.609-14.802 31.524-16.045 49.65zm-30.055 80.813c-4.776 0-8.663-3.886-8.663-8.663s3.886-8.663 8.663-8.663 8.663 3.886 8.663 8.663-3.886 8.663-8.663 8.663zm276.614-17.325c4.776 0 8.663 3.886 8.663 8.663s-3.886 8.663-8.663 8.663-8.663-3.886-8.663-8.663 3.886-8.663 8.663-8.663zm0-129.301c4.776 0 8.663 3.886 8.663 8.663s-3.886 8.663-8.663 8.663-8.663-3.886-8.663-8.663 3.886-8.663 8.663-8.663zm-276.614 17.325c-4.776 0-8.663-3.886-8.663-8.663s3.886-8.663 8.663-8.663 8.663 3.886 8.663 8.663-3.886 8.663-8.663 8.663zm-43.522 64.65c-4.776 0-8.663-3.886-8.663-8.663s3.886-8.663 8.663-8.663 8.663 3.886 8.663 8.663-3.887 8.663-8.663 8.663zm363.658-17.325c4.776 0 8.663 3.886 8.663 8.663s-3.886 8.663-8.663 8.663-8.663-3.886-8.663-8.663 3.887-8.663 8.663-8.663zm-181.829-84.853c51.565 0 93.516 41.951 93.516 93.516s-41.951 93.517-93.516 93.517-93.516-41.951-93.516-93.517c0-51.565 41.951-93.516 93.516-93.516z" fill="#b9b9ea" data-original="#000000" style="" class=""/><path d="m256 226.12c31.987 0 58.01-26.019 58.01-58 0-8.925-1.976-17.493-5.872-25.463-1.819-3.722-6.312-5.264-10.032-3.445-3.722 1.819-5.264 6.311-3.445 10.032 2.885 5.903 4.348 12.253 4.348 18.876 0 23.71-19.294 43-43.01 43s-43.01-19.29-43.01-43c0-2.995.31-5.918.895-8.742.349.401.71.797 1.097 1.184 4.613 4.613 10.673 6.919 16.732 6.919 6.06 0 12.119-2.307 16.732-6.919 4.469-4.469 6.931-10.412 6.931-16.732s-2.461-12.263-6.93-16.732c-.381-.381-.777-.743-1.18-1.095 2.821-.584 5.742-.893 8.734-.893 6.108 0 12.013 1.254 17.551 3.728 3.781 1.69 8.217-.006 9.907-3.789 1.689-3.782-.006-8.217-3.789-9.907-7.475-3.339-15.438-5.033-23.669-5.033-31.987 0-58.01 26.023-58.01 58.01 0 31.983 26.023 58.001 58.01 58.001zm-24.286-90.953c2.314 0 4.489.901 6.125 2.537 1.636 1.636 2.537 3.811 2.537 6.125s-.901 4.489-2.537 6.125c-3.377 3.377-8.873 3.377-12.25 0-3.188-3.188-3.364-8.26-.534-11.66.383-.398.774-.787 1.172-1.17 1.544-1.267 3.462-1.957 5.487-1.957z" fill="#b9b9ea" data-original="#000000" style="" class=""/><path d="m474.2 0h-369.34c-4.142 0-7.5 3.358-7.5 7.5s3.358 7.5 7.5 7.5h369.34c12.572 0 22.8 10.228 22.8 22.8v283.432h-482v-283.432c0-12.572 10.228-22.8 22.8-22.8h32.06c4.142 0 7.5-3.358 7.5-7.5s-3.358-7.5-7.5-7.5h-32.06c-20.843 0-37.8 16.957-37.8 37.8v321.24c0 20.843 16.957 37.8 37.8 37.8h159.07l-20.099 67.835h-44.01c-8.592 0-15.582 6.99-15.582 15.581v16.163c0 8.592 6.99 15.582 15.582 15.582h246.479c8.592 0 15.582-6.99 15.582-15.582v-16.163c0-8.591-6.99-15.581-15.582-15.581h-44.01l-20.1-67.835h56.709c4.142 0 7.5-3.358 7.5-7.5s-3.358-7.5-7.5-7.5h-66.647c-.002 0-.004 0-.005 0h-267.387c-12.572 0-22.8-10.228-22.8-22.8v-22.808h482v22.808c0 12.572-10.228 22.8-22.8 22.8h-67.36c-4.142 0-7.5 3.358-7.5 7.5s3.358 7.5 7.5 7.5h67.36c20.843 0 37.8-16.957 37.8-37.8v-321.24c0-20.843-16.957-37.8-37.8-37.8zm-94.379 480.256v16.163c0 .321-.261.582-.582.582h-246.479c-.321 0-.582-.261-.582-.582v-16.163c0-.32.261-.581.582-.581h246.48c.321 0 .581.261.581.581zm-60.236-15.581h-127.17l20.099-67.835h86.972z" fill="#b9b9ea" data-original="#000000" style="" class=""/></g></g></g></svg>
