<?xml version="1.0"?>
<svg xmlns="http://www.w3.org/2000/svg" xmlns:xlink="http://www.w3.org/1999/xlink" xmlns:svgjs="http://svgjs.com/svgjs" version="1.1" width="512" height="512" x="0" y="0" viewBox="0 0 512 512" style="enable-background:new 0 0 512 512" xml:space="preserve" class=""><g><path xmlns="http://www.w3.org/2000/svg" d="m256 248h32a16 16 0 0 1 16 16v144a16 16 0 0 1 -16 16h-32z" fill="#e6e6e6" data-original="#e6e6e6" style="" class=""/><rect xmlns="http://www.w3.org/2000/svg" fill="#65dcff" height="176" rx="16" width="248" x="24" y="248" data-original="#65dcff" style="" class=""/><path xmlns="http://www.w3.org/2000/svg" d="m218.16151 488h-64.04164a19.94584 19.94584 0 0 0 16.52-31.27l-5.95-8.73-16.37012-24h64.04164l22.32007 32.73a20.00013 20.00013 0 0 1 -16.51995 31.27z" fill="#e6e6e6" data-original="#e6e6e6" style="" class=""/><path xmlns="http://www.w3.org/2000/svg" d="m440 24h32a16 16 0 0 1 16 16v144a16 16 0 0 1 -16 16h-32z" fill="#e6e6e6" data-original="#e6e6e6" style="" class=""/><rect xmlns="http://www.w3.org/2000/svg" fill="#65dcff" height="176" rx="16" width="248" x="208" y="24" data-original="#65dcff" style="" class=""/><path xmlns="http://www.w3.org/2000/svg" d="m402.15911 264h-64a19.94584 19.94584 0 0 0 16.52-31.27l-5.95-8.73-16.37012-24h64l22.32007 32.73a20.00013 20.00013 0 0 1 -16.51995 31.27z" fill="#e6e6e6" data-original="#e6e6e6" style="" class=""/><path xmlns="http://www.w3.org/2000/svg" d="m472 16h-248a24.02718 24.02718 0 0 0 -24 24v144a24.02718 24.02718 0 0 0 24 24h104.13556l19.93622 29.24023a11.99965 11.99965 0 0 1 -9.91455 18.75977h-2.15723a8 8 0 0 0 0 16h66.15723a28 28 0 0 0 23.13427-43.77344l-13.79058-20.22656h36.49908v120a8.00917 8.00917 0 0 1 -8 8h-48a24 24 0 0 0 0 48h32a8 8 0 0 1 0 16h-72a24 24 0 0 0 0 48h48a8 8 0 0 1 0 16h-112a8.00917 8.00917 0 0 1 -8-8v-24h8a24.0275 24.0275 0 0 0 24-24v-144a24.0275 24.0275 0 0 0 -24-24h-248a24.02718 24.02718 0 0 0 -24 24v144a24.02718 24.02718 0 0 0 24 24h104.13556l19.93622 29.24023a11.99965 11.99965 0 0 1 -9.91455 18.75977h-2.15723a8 8 0 0 0 0 16h66.15723a28 28 0 0 0 23.13427-43.77344l-13.79058-20.22656h36.49908v24a24.0275 24.0275 0 0 0 24 24h112a24 24 0 0 0 0-48h-48a8 8 0 0 1 0-16h72a24 24 0 0 0 0-48h-32a8 8 0 0 1 0-16h48a24.0275 24.0275 0 0 0 24-24v-120h8a24.0275 24.0275 0 0 0 24-24v-144a24.0275 24.0275 0 0 0 -24-24zm-176 248v144a8.00917 8.00917 0 0 1 -8 8h-9.37616a23.88535 23.88535 0 0 0 1.37616-8v-144a23.88535 23.88535 0 0 0 -1.37616-8h9.37616a8.00917 8.00917 0 0 1 8 8zm-67.92822 197.24023a11.99965 11.99965 0 0 1 -9.91455 18.75977h-38.70118a27.934 27.934 0 0 0 2.42292-16h18.12103v-16h-25.59015l-10.90885-16h44.63476zm-188.07178-45.24023a8.00917 8.00917 0 0 1 -8-8v-144a8.00917 8.00917 0 0 1 8-8h216a8.00917 8.00917 0 0 1 8 8v144a8.00917 8.00917 0 0 1 -8 8zm372.07178-178.75977a11.99965 11.99965 0 0 1 -9.91455 18.75977h-38.70118a27.934 27.934 0 0 0 2.42292-16h18.12103v-16h-25.59015l-10.90885-16h44.63476zm-188.07178-45.24023a8.00917 8.00917 0 0 1 -8-8v-144a8.00917 8.00917 0 0 1 8-8h216a8.00917 8.00917 0 0 1 8 8v144a8.00917 8.00917 0 0 1 -8 8zm256-8a8.00917 8.00917 0 0 1 -8 8h-9.37616a23.88535 23.88535 0 0 0 1.37616-8v-144a23.88535 23.88535 0 0 0 -1.37616-8h9.37616a8.00917 8.00917 0 0 1 8 8z" fill="#ffffff" data-original="#000000" style="" class=""/></g></svg>
