<?xml version="1.0" ?><svg viewBox="0 0 512 512" xmlns="http://www.w3.org/2000/svg"><defs><style>.cls-1{fill:#767c93;}.cls-2{fill:#dae1ea;}.cls-3{opacity:0.4;}.cls-4{fill:#3f456b;}.cls-5{opacity:0.2;}.cls-6{fill:#fff;}.cls-7{fill:#9ed8cd;}.cls-8{opacity:0.1;}.cls-9{opacity:0.7;}.cls-10{fill:#a6dcf7;}.cls-11{opacity:0.3;}.cls-12{fill:#bac2d3;}.cls-13{opacity:0.25;}.cls-14{opacity:0.5;}.cls-15{fill:#ff7866;}.cls-16{fill:#ff9f50;}.cls-17{fill:#ffbc5a;}.cls-18{fill:#ffcf8a;}.cls-19{fill:#e2df81;}.cls-20{fill:#ace5b2;}</style></defs><title/><g id="Colors"><rect class="cls-1" height="385" width="481" x="16" y="110"/><path class="cls-1" d="M68,110V98A10,10,0,0,1,78,88H183a10,10,0,0,1,10,10v12"/><circle class="cls-2" cx="121" cy="321" r="80"/><g class="cls-3"><rect class="cls-4" height="16" width="481" x="16" y="479"/></g><g class="cls-5"><rect class="cls-6" height="16" width="481" x="16" y="110"/></g><rect class="cls-7" height="34" width="160" x="41" y="187"/><g class="cls-8"><rect class="cls-4" height="17" width="161" x="40" y="187"/></g><g class="cls-9"><path class="cls-6" d="M184.76,272.68,120,321l74.65,31.28S216.51,308.35,184.76,272.68Z"/><polygon class="cls-6" points="120 321 163.25 252.5 143 243.5 120 321"/></g><g class="cls-9"><path class="cls-6" d="M56.23,369.11,121,320.78,46.33,289.5S24.47,333.43,56.23,369.11Z"/><polygon class="cls-6" points="120.99 320.78 77.74 389.28 97.99 398.28 120.99 320.78"/></g><rect class="cls-10" height="45" width="45" x="36" y="420"/><g class="cls-5"><rect class="cls-4" height="12.16" width="45" x="36" y="452.84"/></g><rect class="cls-7" height="45" width="45" x="161" y="420"/><g class="cls-5"><rect class="cls-4" height="12.16" width="45" x="161" y="452.84"/></g><rect class="cls-10" height="45" width="45" x="98" y="420"/><g class="cls-5"><rect class="cls-4" height="12.16" width="45" x="98" y="452.84"/></g><circle class="cls-2" cx="393" cy="321" r="80"/><rect class="cls-7" height="34" width="160" x="313" y="187"/><g class="cls-8"><rect class="cls-4" height="17" width="161" x="312" y="187"/></g><g class="cls-9"><path class="cls-6" d="M456.76,272.68,392,321l74.65,31.28S488.51,308.35,456.76,272.68Z"/><polygon class="cls-6" points="392 321 435.25 252.5 415 243.5 392 321"/></g><g class="cls-9"><path class="cls-6" d="M328.23,369.11,393,320.78,318.33,289.5S296.47,333.43,328.23,369.11Z"/><polygon class="cls-6" points="392.99 320.78 349.74 389.28 369.99 398.28 392.99 320.78"/></g><rect class="cls-10" height="45" width="45" x="308" y="420"/><g class="cls-5"><rect class="cls-4" height="12.16" width="45" x="308" y="452.84"/></g><rect class="cls-7" height="45" width="45" x="433" y="420"/><g class="cls-5"><rect class="cls-4" height="12.16" width="45" x="433" y="452.84"/></g><rect class="cls-10" height="45" width="45" x="370" y="420"/><g class="cls-5"><rect class="cls-4" height="12.16" width="45" x="370" y="452.84"/></g><g class="cls-11"><circle class="cls-4" cx="56" cy="158.7" r="19.3"/></g><circle class="cls-12" cx="56" cy="148.1" r="18.1"/><g class="cls-11"><path class="cls-4" d="M40.8,145.37S42.25,155.5,56,155.5s15.2-9.4,15.2-9.4,2.9,16.64-15.2,16.64S40.8,145.37,40.8,145.37Z"/></g><g class="cls-13"><path class="cls-6" d="M71.2,150.1S69.75,140,56,140s-15.2,9.41-15.2,9.41S37.9,132.72,56,132.72,71.2,150.1,71.2,150.1Z"/></g><g class="cls-11"><circle class="cls-4" cx="120" cy="158.7" r="19.3"/></g><circle class="cls-12" cx="120" cy="148.1" r="18.1"/><g class="cls-11"><path class="cls-4" d="M104.8,145.37s1.45,10.13,15.2,10.13,15.2-9.4,15.2-9.4,2.9,16.64-15.2,16.64S104.8,145.37,104.8,145.37Z"/></g><g class="cls-13"><path class="cls-6" d="M135.2,150.1S133.75,140,120,140s-15.2,9.41-15.2,9.41-2.9-16.65,15.2-16.65S135.2,150.1,135.2,150.1Z"/></g><g class="cls-11"><circle class="cls-4" cx="185" cy="158.7" r="19.3"/></g><circle class="cls-12" cx="185" cy="148.1" r="18.1"/><g class="cls-11"><path class="cls-4" d="M169.8,145.37s1.45,10.13,15.2,10.13,15.2-9.4,15.2-9.4,2.9,16.64-15.2,16.64S169.8,145.37,169.8,145.37Z"/></g><g class="cls-13"><path class="cls-6" d="M200.2,150.1S198.75,140,185,140s-15.2,9.41-15.2,9.41-2.9-16.65,15.2-16.65S200.2,150.1,200.2,150.1Z"/></g><g class="cls-11"><circle class="cls-4" cx="257" cy="158.7" r="19.3"/></g><circle class="cls-12" cx="257" cy="148.1" r="18.1"/><g class="cls-11"><path class="cls-4" d="M241.8,145.37s1.45,10.13,15.2,10.13,15.2-9.4,15.2-9.4,2.9,16.64-15.2,16.64S241.8,145.37,241.8,145.37Z"/></g><g class="cls-13"><path class="cls-6" d="M272.2,150.1S270.75,140,257,140s-15.2,9.41-15.2,9.41-2.9-16.65,15.2-16.65S272.2,150.1,272.2,150.1Z"/></g><g class="cls-11"><circle class="cls-4" cx="257" cy="218.7" r="19.3"/></g><circle class="cls-12" cx="257" cy="208.1" r="18.1"/><g class="cls-11"><path class="cls-4" d="M241.8,205.37s1.45,10.13,15.2,10.13,15.2-9.4,15.2-9.4,2.9,16.64-15.2,16.64S241.8,205.37,241.8,205.37Z"/></g><g class="cls-13"><path class="cls-6" d="M272.2,210.1S270.75,200,257,200s-15.2,9.41-15.2,9.41-2.9-16.65,15.2-16.65S272.2,210.1,272.2,210.1Z"/></g><g class="cls-11"><circle class="cls-4" cx="257" cy="278.7" r="19.3"/></g><circle class="cls-12" cx="257" cy="268.1" r="18.1"/><g class="cls-11"><path class="cls-4" d="M241.8,265.37s1.45,10.13,15.2,10.13,15.2-9.4,15.2-9.4,2.9,16.64-15.2,16.64S241.8,265.37,241.8,265.37Z"/></g><g class="cls-13"><path class="cls-6" d="M272.2,270.1S270.75,260,257,260s-15.2,9.41-15.2,9.41-2.9-16.65,15.2-16.65S272.2,270.1,272.2,270.1Z"/></g><g class="cls-14"><circle class="cls-6" cx="57.33" cy="442.75" r="11.5"/></g><g class="cls-14"><circle class="cls-6" cx="182.33" cy="442.75" r="11.5"/></g><g class="cls-14"><circle class="cls-6" cx="119.33" cy="442.75" r="11.5"/></g><g class="cls-11"><circle class="cls-4" cx="328" cy="158.7" r="19.3"/></g><circle class="cls-12" cx="328" cy="148.1" r="18.1"/><g class="cls-11"><path class="cls-4" d="M312.8,145.37s1.45,10.13,15.2,10.13,15.2-9.4,15.2-9.4,2.9,16.64-15.2,16.64S312.8,145.37,312.8,145.37Z"/></g><g class="cls-13"><path class="cls-6" d="M343.2,150.1S341.75,140,328,140s-15.2,9.41-15.2,9.41-2.9-16.65,15.2-16.65S343.2,150.1,343.2,150.1Z"/></g><g class="cls-11"><circle class="cls-4" cx="392" cy="158.7" r="19.3"/></g><circle class="cls-12" cx="392" cy="148.1" r="18.1"/><g class="cls-11"><path class="cls-4" d="M376.8,145.37s1.45,10.13,15.2,10.13,15.2-9.4,15.2-9.4,2.9,16.64-15.2,16.64S376.8,145.37,376.8,145.37Z"/></g><g class="cls-13"><path class="cls-6" d="M407.2,150.1S405.75,140,392,140s-15.2,9.41-15.2,9.41-2.9-16.65,15.2-16.65S407.2,150.1,407.2,150.1Z"/></g><g class="cls-11"><circle class="cls-4" cx="457" cy="158.7" r="19.3"/></g><circle class="cls-12" cx="457" cy="148.1" r="18.1"/><g class="cls-11"><path class="cls-4" d="M441.8,145.37s1.45,10.13,15.2,10.13,15.2-9.4,15.2-9.4,2.9,16.64-15.2,16.64S441.8,145.37,441.8,145.37Z"/></g><g class="cls-13"><path class="cls-6" d="M472.2,150.1S470.75,140,457,140s-15.2,9.41-15.2,9.41-2.9-16.65,15.2-16.65S472.2,150.1,472.2,150.1Z"/></g><g class="cls-14"><circle class="cls-6" cx="329.33" cy="442.75" r="11.5"/></g><g class="cls-14"><circle class="cls-6" cx="454.33" cy="442.75" r="11.5"/></g><g class="cls-14"><circle class="cls-6" cx="391.33" cy="442.75" r="11.5"/></g><path class="cls-15" d="M269,321H245a5,5,0,0,1,0-10h24a5,5,0,0,1,0,10Z"/><path class="cls-16" d="M269,341.71H245a5,5,0,0,1,0-10h24a5,5,0,0,1,0,10Z"/><path class="cls-17" d="M269,362.43H245a5,5,0,0,1,0-10h24a5,5,0,0,1,0,10Z"/><path class="cls-18" d="M269,383.14H245a5,5,0,0,1,0-10h24a5,5,0,0,1,0,10Z"/><path class="cls-19" d="M269,403.86H245a5,5,0,0,1,0-10h24a5,5,0,0,1,0,10Z"/><path class="cls-20" d="M269,424.57H245a5,5,0,1,1,0-10h24a5,5,0,0,1,0,10Z"/><path class="cls-7" d="M269,445.29H245a5,5,0,1,1,0-10h24a5,5,0,0,1,0,10Z"/><path class="cls-10" d="M269,466H245a5,5,0,0,1,0-10h24a5,5,0,0,1,0,10Z"/><g class="cls-14"><path class="cls-4" d="M223,484a5,5,0,0,1-5-5V133a5,5,0,0,1,10,0V479A5,5,0,0,1,223,484Z"/></g><g class="cls-14"><path class="cls-4" d="M290,484a5,5,0,0,1-5-5V133a5,5,0,0,1,10,0V479A5,5,0,0,1,290,484Z"/></g></g><g id="Lines"><path class="cls-4" d="M193,115a5,5,0,0,1-5-5V98a5,5,0,0,0-5-5H78a5,5,0,0,0-5,5v12a5,5,0,0,1-10,0V98A15,15,0,0,1,78,83H183a15,15,0,0,1,15,15v12A5,5,0,0,1,193,115Z"/><path class="cls-4" d="M112.09,93a5,5,0,0,1-5-5V75.14a31,31,0,0,1,8.62-20.31c6.21-6.23,15-9.39,26.29-9.39H417.33c.1,0,12.48.65,20-6.46,4-3.78,6.05-9.29,6.05-16.38V14a5,5,0,0,1,10,0v8.61c0,10-3.12,18-9.26,23.72-10.25,9.61-25.32,9.21-27.29,9.11H142c-8.48,0-15,2.17-19.21,6.44a21,21,0,0,0-5.7,13.24V88A5,5,0,0,1,112.09,93Z"/><path class="cls-4" d="M56,171.19A23.1,23.1,0,1,1,79.1,148.1,23.13,23.13,0,0,1,56,171.19ZM56,135a13.1,13.1,0,1,0,13.1,13.1A13.11,13.11,0,0,0,56,135Z"/><path class="cls-4" d="M120,171.19a23.1,23.1,0,1,1,23.1-23.09A23.13,23.13,0,0,1,120,171.19ZM120,135a13.1,13.1,0,1,0,13.1,13.1A13.11,13.11,0,0,0,120,135Z"/><path class="cls-4" d="M185,171.19a23.1,23.1,0,1,1,23.1-23.09A23.13,23.13,0,0,1,185,171.19ZM185,135a13.1,13.1,0,1,0,13.1,13.1A13.11,13.11,0,0,0,185,135Z"/><path class="cls-4" d="M257,171.19a23.1,23.1,0,1,1,23.1-23.09A23.13,23.13,0,0,1,257,171.19ZM257,135a13.1,13.1,0,1,0,13.1,13.1A13.11,13.11,0,0,0,257,135Z"/><path class="cls-4" d="M257,231.19a23.1,23.1,0,1,1,23.1-23.09A23.13,23.13,0,0,1,257,231.19ZM257,195a13.1,13.1,0,1,0,13.1,13.1A13.11,13.11,0,0,0,257,195Z"/><path class="cls-4" d="M257,291.19a23.1,23.1,0,1,1,23.1-23.09A23.13,23.13,0,0,1,257,291.19ZM257,255a13.1,13.1,0,1,0,13.1,13.1A13.11,13.11,0,0,0,257,255Z"/><path class="cls-4" d="M497,500H16a5,5,0,0,1-5-5V110a5,5,0,0,1,5-5H497a5,5,0,0,1,5,5V495A5,5,0,0,1,497,500ZM21,490H492V115H21Z"/><path class="cls-4" d="M121,406a85,85,0,1,1,85-85A85.1,85.1,0,0,1,121,406Zm0-160a75,75,0,1,0,75,75A75.09,75.09,0,0,0,121,246Z"/><path class="cls-4" d="M201,226H41a5,5,0,0,1-5-5V187a5,5,0,0,1,5-5H201a5,5,0,0,1,5,5v34A5,5,0,0,1,201,226ZM46,216H196V192H46Z"/><path class="cls-4" d="M81,470H36a5,5,0,0,1-5-5V420a5,5,0,0,1,5-5H81a5,5,0,0,1,5,5v45A5,5,0,0,1,81,470ZM41,460H76V425H41Z"/><path class="cls-4" d="M206,470H161a5,5,0,0,1-5-5V420a5,5,0,0,1,5-5h45a5,5,0,0,1,5,5v45A5,5,0,0,1,206,470Zm-40-10h35V425H166Z"/><path class="cls-4" d="M143,470H98a5,5,0,0,1-5-5V420a5,5,0,0,1,5-5h45a5,5,0,0,1,5,5v45A5,5,0,0,1,143,470Zm-40-10h35V425H103Z"/><path class="cls-4" d="M328,171.19a23.1,23.1,0,1,1,23.1-23.09A23.13,23.13,0,0,1,328,171.19ZM328,135a13.1,13.1,0,1,0,13.1,13.1A13.11,13.11,0,0,0,328,135Z"/><path class="cls-4" d="M392,171.19a23.1,23.1,0,1,1,23.1-23.09A23.13,23.13,0,0,1,392,171.19ZM392,135a13.1,13.1,0,1,0,13.1,13.1A13.11,13.11,0,0,0,392,135Z"/><path class="cls-4" d="M457,171.19a23.1,23.1,0,1,1,23.1-23.09A23.13,23.13,0,0,1,457,171.19ZM457,135a13.1,13.1,0,1,0,13.1,13.1A13.11,13.11,0,0,0,457,135Z"/><path class="cls-4" d="M393,406a85,85,0,1,1,85-85A85.1,85.1,0,0,1,393,406Zm0-160a75,75,0,1,0,75,75A75.09,75.09,0,0,0,393,246Z"/><path class="cls-4" d="M473,226H313a5,5,0,0,1-5-5V187a5,5,0,0,1,5-5H473a5,5,0,0,1,5,5v34A5,5,0,0,1,473,226ZM318,216H468V192H318Z"/><path class="cls-4" d="M353,470H308a5,5,0,0,1-5-5V420a5,5,0,0,1,5-5h45a5,5,0,0,1,5,5v45A5,5,0,0,1,353,470Zm-40-10h35V425H313Z"/><path class="cls-4" d="M478,470H433a5,5,0,0,1-5-5V420a5,5,0,0,1,5-5h45a5,5,0,0,1,5,5v45A5,5,0,0,1,478,470Zm-40-10h35V425H438Z"/><path class="cls-4" d="M415,470H370a5,5,0,0,1-5-5V420a5,5,0,0,1,5-5h45a5,5,0,0,1,5,5v45A5,5,0,0,1,415,470Zm-40-10h35V425H375Z"/><path class="cls-4" d="M393,326a5,5,0,0,1-5-5v-1a5,5,0,0,1,10,0v1A5,5,0,0,1,393,326Z"/><path class="cls-4" d="M121,326a5,5,0,0,1-5-5v-1a5,5,0,0,1,10,0v1A5,5,0,0,1,121,326Z"/><path class="cls-4" d="M41,246a5,5,0,0,1-5-5v-1a5,5,0,0,1,10,0v1A5,5,0,0,1,41,246Z"/><path class="cls-4" d="M201,246a5,5,0,0,1-5-5v-1a5,5,0,0,1,10,0v1A5,5,0,0,1,201,246Z"/><path class="cls-4" d="M41,406a5,5,0,0,1-5-5v-1a5,5,0,0,1,10,0v1A5,5,0,0,1,41,406Z"/><path class="cls-4" d="M201,406a5,5,0,0,1-5-5v-1a5,5,0,0,1,10,0v1A5,5,0,0,1,201,406Z"/><path class="cls-4" d="M313,246a5,5,0,0,1-5-5v-1a5,5,0,0,1,10,0v1A5,5,0,0,1,313,246Z"/><path class="cls-4" d="M473,246a5,5,0,0,1-5-5v-1a5,5,0,0,1,10,0v1A5,5,0,0,1,473,246Z"/><path class="cls-4" d="M313,406a5,5,0,0,1-5-5v-1a5,5,0,0,1,10,0v1A5,5,0,0,1,313,406Z"/><path class="cls-4" d="M473,406a5,5,0,0,1-5-5v-1a5,5,0,0,1,10,0v1A5,5,0,0,1,473,406Z"/></g></svg>