<?xml version="1.0" ?><svg viewBox="0 0 512 512" xmlns="http://www.w3.org/2000/svg"><defs><style>.cls-1{fill:#767c93;}.cls-2{opacity:0.2;}.cls-3{fill:#fff;}.cls-4{opacity:0.5;}.cls-5{fill:#3f456b;}.cls-6{opacity:0.4;}.cls-7{fill:#b9b9ea;}.cls-8{fill:#dae1ea;}.cls-9{fill:#8bd0f7;}.cls-10{fill:#8fe5dd;}.cls-11{fill:#9398aa;}.cls-12{opacity:0.3;}.cls-13{opacity:0.15;}</style></defs><title/><g id="Colors"><rect class="cls-1" height="479" rx="20" ry="20" width="480" x="15" y="16"/><g class="cls-2"><path class="cls-3" d="M493.91,44s1-13.18-21-13.18h-431s-24,0-25.5,12.77c0,0-7.5-27.6,25-27.6h430S501.91,13.52,493.91,44Z"/></g><g class="cls-4"><path class="cls-5" d="M17,469s-1,12.71,21,12.71H469s24,0,25.5-12.31c0,0,7.5,26.61-25,26.61H39.5S9,498.4,17,469Z"/></g><g class="cls-2"><path class="cls-3" d="M493.91,44s1-13.18-21-13.18h-431s-24,0-25.5,12.77c0,0-7.5-27.6,25-27.6h430S501.91,13.52,493.91,44Z"/></g><g class="cls-6"><rect class="cls-5" height="76.27" rx="10" ry="10" width="76.27" x="134.42" y="133.09"/></g><rect class="cls-7" height="69.34" rx="10" ry="10" width="69.34" x="137.19" y="124"/><g class="cls-2"><rect class="cls-5" height="16.64" width="59.63" x="141.36" y="176.7"/></g><g class="cls-6"><rect class="cls-5" height="76.27" rx="10" ry="10" width="76.27" x="133.87" y="222.31"/></g><rect class="cls-7" height="69.34" rx="10" ry="10" width="69.34" x="136.64" y="213.21"/><g class="cls-2"><rect class="cls-5" height="16.64" width="59.63" x="140.8" y="265.91"/></g><g class="cls-6"><rect class="cls-5" height="76.27" rx="10" ry="10" width="76.27" x="133.87" y="311.52"/></g><rect class="cls-8" height="69.34" rx="10" ry="10" width="69.34" x="136.64" y="302.42"/><g class="cls-2"><rect class="cls-5" height="16.64" width="59.63" x="140.8" y="355.12"/></g><g class="cls-6"><rect class="cls-5" height="76.27" rx="10" ry="10" width="76.27" x="133.87" y="400.73"/></g><rect class="cls-7" height="69.34" rx="10" ry="10" width="69.34" x="136.64" y="391.64"/><g class="cls-2"><rect class="cls-5" height="16.64" width="59.63" x="140.8" y="444.33"/></g><g class="cls-4"><circle class="cls-3" cx="171.43" cy="159.14" r="23.02"/></g><g class="cls-4"><circle class="cls-3" cx="171.43" cy="247.58" r="23.02"/></g><g class="cls-4"><circle class="cls-3" cx="171.43" cy="337.24" r="23.02"/></g><g class="cls-4"><circle class="cls-3" cx="171.43" cy="426.9" r="23.02"/></g><g class="cls-6"><rect class="cls-5" height="76.27" rx="10" ry="10" width="76.27" x="43.55" y="133.09"/></g><rect class="cls-8" height="69.34" rx="10" ry="10" width="69.34" x="46.32" y="124"/><g class="cls-2"><rect class="cls-5" height="16.64" width="59.63" x="50.48" y="176.7"/></g><g class="cls-6"><rect class="cls-5" height="76.27" rx="10" ry="10" width="76.27" x="43" y="222.31"/></g><rect class="cls-8" height="69.34" rx="10" ry="10" width="69.34" x="45.77" y="213.21"/><g class="cls-2"><rect class="cls-5" height="16.64" width="59.63" x="49.93" y="265.91"/></g><g class="cls-6"><rect class="cls-5" height="76.27" rx="10" ry="10" width="76.27" x="43" y="311.52"/></g><rect class="cls-9" height="69.34" rx="10" ry="10" width="69.34" x="45.77" y="302.42"/><g class="cls-2"><rect class="cls-5" height="16.64" width="59.63" x="49.93" y="355.12"/></g><g class="cls-6"><rect class="cls-5" height="76.27" rx="10" ry="10" width="76.27" x="43" y="400.73"/></g><rect class="cls-7" height="69.34" rx="10" ry="10" width="69.34" x="45.77" y="391.64"/><g class="cls-2"><rect class="cls-5" height="16.64" width="59.63" x="49.93" y="444.33"/></g><g class="cls-4"><circle class="cls-3" cx="80.56" cy="159.14" r="23.02"/></g><g class="cls-4"><circle class="cls-3" cx="80.56" cy="247.58" r="23.02"/></g><g class="cls-4"><circle class="cls-3" cx="80.56" cy="337.24" r="23.02"/></g><g class="cls-4"><circle class="cls-3" cx="80.56" cy="426.9" r="23.02"/></g><g class="cls-6"><rect class="cls-5" height="76.27" rx="10" ry="10" width="76.27" x="225.29" y="133.09"/></g><rect class="cls-10" height="69.34" rx="10" ry="10" width="69.34" x="228.07" y="124"/><g class="cls-2"><rect class="cls-5" height="16.64" width="59.63" x="232.23" y="176.7"/></g><g class="cls-6"><rect class="cls-5" height="76.27" rx="10" ry="10" width="76.27" x="224.74" y="222.31"/></g><rect class="cls-10" height="69.34" rx="10" ry="10" width="69.34" x="227.51" y="213.21"/><g class="cls-2"><rect class="cls-5" height="16.64" width="59.63" x="231.67" y="265.91"/></g><g class="cls-6"><rect class="cls-5" height="76.27" rx="10" ry="10" width="76.27" x="224.74" y="311.52"/></g><rect class="cls-10" height="69.34" rx="10" ry="10" width="69.34" x="227.51" y="302.42"/><g class="cls-2"><rect class="cls-5" height="16.64" width="59.63" x="231.67" y="355.12"/></g><g class="cls-6"><rect class="cls-5" height="76.27" rx="10" ry="10" width="76.27" x="224.74" y="400.73"/></g><rect class="cls-7" height="69.34" rx="10" ry="10" width="69.34" x="227.51" y="391.64"/><g class="cls-2"><rect class="cls-5" height="16.64" width="59.63" x="231.67" y="444.33"/></g><g class="cls-4"><circle class="cls-3" cx="262.3" cy="159.14" r="23.02"/></g><g class="cls-4"><circle class="cls-3" cx="262.3" cy="247.58" r="23.02"/></g><g class="cls-4"><circle class="cls-3" cx="262.3" cy="337.24" r="23.02"/></g><g class="cls-4"><circle class="cls-3" cx="262.3" cy="426.9" r="23.02"/></g><g class="cls-6"><rect class="cls-5" height="76.27" rx="10" ry="10" width="76.27" x="316.16" y="133.09"/></g><rect class="cls-9" height="69.34" rx="10" ry="10" width="69.34" x="318.94" y="124"/><g class="cls-2"><rect class="cls-5" height="16.64" width="59.63" x="323.1" y="176.7"/></g><g class="cls-6"><rect class="cls-5" height="76.27" rx="10" ry="10" width="76.27" x="315.61" y="222.31"/></g><rect class="cls-9" height="69.34" rx="10" ry="10" width="69.34" x="318.38" y="213.21"/><g class="cls-2"><rect class="cls-5" height="16.64" width="59.63" x="322.54" y="265.91"/></g><g class="cls-6"><rect class="cls-5" height="76.27" rx="10" ry="10" width="76.27" x="315.61" y="311.52"/></g><rect class="cls-9" height="69.34" rx="10" ry="10" width="69.34" x="318.38" y="302.42"/><g class="cls-2"><rect class="cls-5" height="16.64" width="59.63" x="322.54" y="355.12"/></g><g class="cls-6"><rect class="cls-5" height="76.27" rx="10" ry="10" width="76.27" x="315.61" y="400.73"/></g><rect class="cls-9" height="69.34" rx="10" ry="10" width="69.34" x="318.38" y="391.64"/><g class="cls-2"><rect class="cls-5" height="16.64" width="59.63" x="322.54" y="444.33"/></g><g class="cls-4"><circle class="cls-3" cx="353.17" cy="159.14" r="23.02"/></g><g class="cls-4"><circle class="cls-3" cx="353.17" cy="247.58" r="23.02"/></g><g class="cls-4"><circle class="cls-3" cx="353.17" cy="337.24" r="23.02"/></g><g class="cls-4"><circle class="cls-3" cx="353.17" cy="426.9" r="23.02"/></g><g class="cls-6"><rect class="cls-5" height="62.95" rx="10" ry="10" width="62.95" x="413.45" y="192.16"/></g><rect class="cls-1" height="57.23" rx="10" ry="10" width="57.23" x="415.74" y="183"/><g class="cls-2"><rect class="cls-5" height="13.73" width="49.21" x="419.18" y="226.49"/></g><g class="cls-2"><rect class="cls-3" height="13.73" width="49.21" x="419.18" y="183.49"/></g><g class="cls-6"><rect class="cls-5" height="62.95" rx="10" ry="10" width="62.95" x="413" y="265.79"/></g><rect class="cls-1" height="57.23" rx="10" ry="10" width="57.23" x="415.29" y="256.63"/><g class="cls-2"><rect class="cls-5" height="13.73" width="49.21" x="418.72" y="300.12"/></g><g class="cls-2"><rect class="cls-3" height="13.73" width="49.21" x="418.72" y="257.12"/></g><g class="cls-6"><rect class="cls-5" height="62.95" rx="10" ry="10" width="62.95" x="413" y="339.42"/></g><rect class="cls-1" height="57.23" rx="10" ry="10" width="57.23" x="415.29" y="330.26"/><g class="cls-2"><rect class="cls-5" height="13.73" width="49.21" x="418.72" y="373.76"/></g><g class="cls-2"><rect class="cls-3" height="13.73" width="49.21" x="418.72" y="330.76"/></g><g class="cls-6"><rect class="cls-5" height="62.95" rx="10" ry="10" width="62.95" x="413" y="413.05"/></g><rect class="cls-1" height="57.23" rx="10" ry="10" width="57.23" x="415.29" y="403.89"/><g class="cls-2"><rect class="cls-5" height="13.73" width="49.21" x="418.72" y="447.39"/></g><g class="cls-2"><rect class="cls-3" height="13.73" width="49.21" x="418.72" y="404.39"/></g><g class="cls-6"><circle class="cls-5" cx="76" cy="83.38" r="22.62"/></g><circle class="cls-11" cx="76" cy="66.62" r="22.62"/><g class="cls-12"><path class="cls-5" d="M57,65.71s1.81,12.67,19,12.67S95,66.62,95,66.62s3.62,20.81-19,20.81S57,65.71,57,65.71Z"/></g><g class="cls-13"><path class="cls-3" d="M95,66.62S93.19,54,76,54,57,65.71,57,65.71,53.38,44.9,76,44.9,95,66.62,95,66.62Z"/></g><g class="cls-6"><circle class="cls-5" cx="145" cy="83.38" r="22.62"/></g><circle class="cls-11" cx="145" cy="66.62" r="22.62"/><g class="cls-12"><path class="cls-5" d="M126,65.71s1.81,12.67,19,12.67,19-11.76,19-11.76,3.62,20.81-19,20.81S126,65.71,126,65.71Z"/></g><g class="cls-13"><path class="cls-3" d="M164,66.62S162.19,54,145,54s-19,11.76-19,11.76S122.38,44.9,145,44.9,164,66.62,164,66.62Z"/></g><g class="cls-6"><circle class="cls-5" cx="218" cy="83.38" r="22.62"/></g><circle class="cls-11" cx="218" cy="66.62" r="22.62"/><g class="cls-12"><path class="cls-5" d="M199,65.71s1.81,12.67,19,12.67,19-11.76,19-11.76,3.62,20.81-19,20.81S199,65.71,199,65.71Z"/></g><g class="cls-13"><path class="cls-3" d="M237,66.62S235.19,54,218,54s-19,11.76-19,11.76S195.38,44.9,218,44.9,237,66.62,237,66.62Z"/></g><g class="cls-6"><circle class="cls-5" cx="292" cy="83.38" r="22.62"/></g><circle class="cls-11" cx="292" cy="66.62" r="22.62"/><g class="cls-12"><path class="cls-5" d="M273,65.71s1.81,12.67,19,12.67,19-11.76,19-11.76,3.62,20.81-19,20.81S273,65.71,273,65.71Z"/></g><g class="cls-13"><path class="cls-3" d="M311,66.62S309.19,54,292,54s-19,11.76-19,11.76S269.38,44.9,292,44.9,311,66.62,311,66.62Z"/></g><g class="cls-6"><circle class="cls-5" cx="366" cy="83.38" r="22.62"/></g><circle class="cls-11" cx="366" cy="66.62" r="22.62"/><g class="cls-12"><path class="cls-5" d="M347,65.71s1.81,12.67,19,12.67,19-11.76,19-11.76,3.62,20.81-19,20.81S347,65.71,347,65.71Z"/></g><g class="cls-13"><path class="cls-3" d="M385,66.62S383.19,54,366,54s-19,11.76-19,11.76S343.38,44.9,366,44.9,385,66.62,385,66.62Z"/></g><g class="cls-6"><circle class="cls-5" cx="438" cy="83.38" r="22.62"/></g><circle class="cls-11" cx="438" cy="66.62" r="22.62"/><g class="cls-12"><path class="cls-5" d="M419,65.71s1.81,12.67,19,12.67,19-11.76,19-11.76,3.62,20.81-19,20.81S419,65.71,419,65.71Z"/></g><g class="cls-13"><path class="cls-3" d="M457,66.62S455.19,54,438,54s-19,11.76-19,11.76S415.38,44.9,438,44.9,457,66.62,457,66.62Z"/></g><g class="cls-4"><path class="cls-3" d="M439,227.33a5,5,0,0,1-3.12-8.9l8.31-6.65-8.46-7.34a5,5,0,1,1,6.54-7.55l13,11.26a5,5,0,0,1-.15,7.69l-13,10.4A4.94,4.94,0,0,1,439,227.33Z"/><path class="cls-3" d="M439,301.33a5,5,0,0,1-3.12-8.9l8.31-6.65-8.46-7.34a5,5,0,1,1,6.54-7.55l13,11.26a5,5,0,0,1-.15,7.69l-13,10.4A4.94,4.94,0,0,1,439,301.33Z"/><path class="cls-3" d="M439,375.33a5,5,0,0,1-3.12-8.9l8.31-6.65-8.46-7.34a5,5,0,1,1,6.54-7.55l13,11.26a5,5,0,0,1-.15,7.69l-13,10.4A4.94,4.94,0,0,1,439,375.33Z"/><path class="cls-3" d="M439,449.33a5,5,0,0,1-3.12-8.9l8.31-6.65-8.46-7.34a5,5,0,1,1,6.54-7.55l13,11.26a5,5,0,0,1-.15,7.69l-13,10.4A4.94,4.94,0,0,1,439,449.33Z"/></g><path class="cls-3" d="M218,72a5,5,0,0,1-5-5V66a5,5,0,0,1,10,0v1A5,5,0,0,1,218,72Z"/><path class="cls-7" d="M292,72a5,5,0,0,1-5-5V66a5,5,0,0,1,10,0v1A5,5,0,0,1,292,72Z"/><path class="cls-10" d="M366,72a5,5,0,0,1-5-5V66a5,5,0,0,1,10,0v1A5,5,0,0,1,366,72Z"/><path class="cls-9" d="M438,72a5,5,0,0,1-5-5V66a5,5,0,0,1,10,0v1A5,5,0,0,1,438,72Z"/></g><g id="Lines"><path class="cls-5" d="M475,500H35a25,25,0,0,1-25-25V36A25,25,0,0,1,35,11H475a25,25,0,0,1,25,25V475A25,25,0,0,1,475,500ZM35,21A15,15,0,0,0,20,36V475a15,15,0,0,0,15,15H475a15,15,0,0,0,15-15V36a15,15,0,0,0-15-15Z"/><path class="cls-5" d="M196.53,198.34H147.2a15,15,0,0,1-15-15V134a15,15,0,0,1,15-15h49.33a15,15,0,0,1,15,15v49.34A15,15,0,0,1,196.53,198.34ZM147.2,129a5,5,0,0,0-5,5v49.34a5,5,0,0,0,5,5h49.33a5,5,0,0,0,5-5V134a5,5,0,0,0-5-5Z"/><path class="cls-5" d="M196,287.55H146.64a15,15,0,0,1-15-15V223.21a15,15,0,0,1,15-15H196a15,15,0,0,1,15,15v49.34A15,15,0,0,1,196,287.55Zm-49.34-69.34a5,5,0,0,0-5,5v49.34a5,5,0,0,0,5,5H196a5,5,0,0,0,5-5V223.21a5,5,0,0,0-5-5Z"/><path class="cls-5" d="M196,376.76H146.64a15,15,0,0,1-15-15V312.42a15,15,0,0,1,15-15H196a15,15,0,0,1,15,15v49.34A15,15,0,0,1,196,376.76Zm-49.34-69.34a5,5,0,0,0-5,5v49.34a5,5,0,0,0,5,5H196a5,5,0,0,0,5-5V312.42a5,5,0,0,0-5-5Z"/><path class="cls-5" d="M196,466H146.64a15,15,0,0,1-15-15V401.64a15,15,0,0,1,15-15H196a15,15,0,0,1,15,15V451A15,15,0,0,1,196,466Zm-49.34-69.33a5,5,0,0,0-5,5V451a5,5,0,0,0,5,5H196a5,5,0,0,0,5-5V401.64a5,5,0,0,0-5-5Z"/><path class="cls-5" d="M105.66,198.34H56.32a15,15,0,0,1-15-15V134a15,15,0,0,1,15-15h49.34a15,15,0,0,1,15,15v49.34A15,15,0,0,1,105.66,198.34ZM56.32,129a5,5,0,0,0-5,5v49.34a5,5,0,0,0,5,5h49.34a5,5,0,0,0,5-5V134a5,5,0,0,0-5-5Z"/><path class="cls-5" d="M105.11,287.55H55.77a15,15,0,0,1-15-15V223.21a15,15,0,0,1,15-15h49.34a15,15,0,0,1,15,15v49.34A15,15,0,0,1,105.11,287.55ZM55.77,218.21a5,5,0,0,0-5,5v49.34a5,5,0,0,0,5,5h49.34a5,5,0,0,0,5-5V223.21a5,5,0,0,0-5-5Z"/><path class="cls-5" d="M105.11,376.76H55.77a15,15,0,0,1-15-15V312.42a15,15,0,0,1,15-15h49.34a15,15,0,0,1,15,15v49.34A15,15,0,0,1,105.11,376.76ZM55.77,307.42a5,5,0,0,0-5,5v49.34a5,5,0,0,0,5,5h49.34a5,5,0,0,0,5-5V312.42a5,5,0,0,0-5-5Z"/><path class="cls-5" d="M105.11,466H55.77a15,15,0,0,1-15-15V401.64a15,15,0,0,1,15-15h49.34a15,15,0,0,1,15,15V451A15,15,0,0,1,105.11,466ZM55.77,396.64a5,5,0,0,0-5,5V451a5,5,0,0,0,5,5h49.34a5,5,0,0,0,5-5V401.64a5,5,0,0,0-5-5Z"/><path class="cls-5" d="M287.4,198.34H238.07a15,15,0,0,1-15-15V134a15,15,0,0,1,15-15H287.4a15,15,0,0,1,15,15v49.34A15,15,0,0,1,287.4,198.34ZM238.07,129a5,5,0,0,0-5,5v49.34a5,5,0,0,0,5,5H287.4a5,5,0,0,0,5-5V134a5,5,0,0,0-5-5Z"/><path class="cls-5" d="M286.85,287.55H237.51a15,15,0,0,1-15-15V223.21a15,15,0,0,1,15-15h49.34a15,15,0,0,1,15,15v49.34A15,15,0,0,1,286.85,287.55Zm-49.34-69.34a5,5,0,0,0-5,5v49.34a5,5,0,0,0,5,5h49.34a5,5,0,0,0,5-5V223.21a5,5,0,0,0-5-5Z"/><path class="cls-5" d="M286.85,376.76H237.51a15,15,0,0,1-15-15V312.42a15,15,0,0,1,15-15h49.34a15,15,0,0,1,15,15v49.34A15,15,0,0,1,286.85,376.76Zm-49.34-69.34a5,5,0,0,0-5,5v49.34a5,5,0,0,0,5,5h49.34a5,5,0,0,0,5-5V312.42a5,5,0,0,0-5-5Z"/><path class="cls-5" d="M286.85,466H237.51a15,15,0,0,1-15-15V401.64a15,15,0,0,1,15-15h49.34a15,15,0,0,1,15,15V451A15,15,0,0,1,286.85,466Zm-49.34-69.33a5,5,0,0,0-5,5V451a5,5,0,0,0,5,5h49.34a5,5,0,0,0,5-5V401.64a5,5,0,0,0-5-5Z"/><path class="cls-5" d="M378.27,198.34H328.94a15,15,0,0,1-15-15V134a15,15,0,0,1,15-15h49.33a15,15,0,0,1,15,15v49.34A15,15,0,0,1,378.27,198.34ZM328.94,129a5,5,0,0,0-5,5v49.34a5,5,0,0,0,5,5h49.33a5,5,0,0,0,5-5V134a5,5,0,0,0-5-5Z"/><path class="cls-5" d="M377.72,287.55H328.38a15,15,0,0,1-15-15V223.21a15,15,0,0,1,15-15h49.34a15,15,0,0,1,15,15v49.34A15,15,0,0,1,377.72,287.55Zm-49.34-69.34a5,5,0,0,0-5,5v49.34a5,5,0,0,0,5,5h49.34a5,5,0,0,0,5-5V223.21a5,5,0,0,0-5-5Z"/><path class="cls-5" d="M377.72,376.76H328.38a15,15,0,0,1-15-15V312.42a15,15,0,0,1,15-15h49.34a15,15,0,0,1,15,15v49.34A15,15,0,0,1,377.72,376.76Zm-49.34-69.34a5,5,0,0,0-5,5v49.34a5,5,0,0,0,5,5h49.34a5,5,0,0,0,5-5V312.42a5,5,0,0,0-5-5Z"/><path class="cls-5" d="M377.72,466H328.38a15,15,0,0,1-15-15V401.64a15,15,0,0,1,15-15h49.34a15,15,0,0,1,15,15V451A15,15,0,0,1,377.72,466Zm-49.34-69.33a5,5,0,0,0-5,5V451a5,5,0,0,0,5,5h49.34a5,5,0,0,0,5-5V401.64a5,5,0,0,0-5-5Z"/><path class="cls-5" d="M463,245.23H425.74a15,15,0,0,1-15-15V193a15,15,0,0,1,15-15H463a15,15,0,0,1,15,15v37.23A15,15,0,0,1,463,245.23ZM425.74,188a5,5,0,0,0-5,5v37.23a5,5,0,0,0,5,5H463a5,5,0,0,0,5-5V193a5,5,0,0,0-5-5Z"/><path class="cls-5" d="M462.51,318.86H425.29a15,15,0,0,1-15-15V266.63a15,15,0,0,1,15-15h37.22a15,15,0,0,1,15,15v37.23A15,15,0,0,1,462.51,318.86Zm-37.22-57.23a5,5,0,0,0-5,5v37.23a5,5,0,0,0,5,5h37.22a5,5,0,0,0,5-5V266.63a5,5,0,0,0-5-5Z"/><path class="cls-5" d="M462.51,392.49H425.29a15,15,0,0,1-15-15V340.26a15,15,0,0,1,15-15h37.22a15,15,0,0,1,15,15v37.23A15,15,0,0,1,462.51,392.49Zm-37.22-57.23a5,5,0,0,0-5,5v37.23a5,5,0,0,0,5,5h37.22a5,5,0,0,0,5-5V340.26a5,5,0,0,0-5-5Z"/><path class="cls-5" d="M462.51,466.12H425.29a15,15,0,0,1-15-15V413.89a15,15,0,0,1,15-15h37.22a15,15,0,0,1,15,15v37.23A15,15,0,0,1,462.51,466.12Zm-37.22-57.23a5,5,0,0,0-5,5v37.23a5,5,0,0,0,5,5h37.22a5,5,0,0,0,5-5V413.89a5,5,0,0,0-5-5Z"/><path class="cls-5" d="M76,94.24a27.62,27.62,0,1,1,27.62-27.62A27.65,27.65,0,0,1,76,94.24ZM76,49A17.62,17.62,0,1,0,93.62,66.62,17.64,17.64,0,0,0,76,49Z"/><path class="cls-5" d="M145,94.24a27.62,27.62,0,1,1,27.62-27.62A27.65,27.65,0,0,1,145,94.24ZM145,49a17.62,17.62,0,1,0,17.62,17.62A17.64,17.64,0,0,0,145,49Z"/><path class="cls-5" d="M218,94.24a27.62,27.62,0,1,1,27.62-27.62A27.65,27.65,0,0,1,218,94.24ZM218,49a17.62,17.62,0,1,0,17.62,17.62A17.64,17.64,0,0,0,218,49Z"/><path class="cls-5" d="M292,94.24a27.62,27.62,0,1,1,27.62-27.62A27.65,27.65,0,0,1,292,94.24ZM292,49a17.62,17.62,0,1,0,17.62,17.62A17.64,17.64,0,0,0,292,49Z"/><path class="cls-5" d="M366,94.24a27.62,27.62,0,1,1,27.62-27.62A27.65,27.65,0,0,1,366,94.24ZM366,49a17.62,17.62,0,1,0,17.62,17.62A17.64,17.64,0,0,0,366,49Z"/><path class="cls-5" d="M438,94.24a27.62,27.62,0,1,1,27.62-27.62A27.65,27.65,0,0,1,438,94.24ZM438,49a17.62,17.62,0,1,0,17.62,17.62A17.64,17.64,0,0,0,438,49Z"/><path class="cls-5" d="M422,123a5,5,0,0,1-5-5v-1a5,5,0,0,1,10,0v1A5,5,0,0,1,422,123Z"/><path class="cls-5" d="M76,72a5,5,0,0,1-5-5V66a5,5,0,0,1,10,0v1A5,5,0,0,1,76,72Z"/><path class="cls-5" d="M145,72a5,5,0,0,1-5-5V66a5,5,0,0,1,10,0v1A5,5,0,0,1,145,72Z"/><path class="cls-5" d="M445,123a5,5,0,0,1-5-5v-1a5,5,0,0,1,10,0v1A5,5,0,0,1,445,123Z"/><path class="cls-5" d="M468,123a5,5,0,0,1-5-5v-1a5,5,0,0,1,10,0v1A5,5,0,0,1,468,123Z"/><path class="cls-5" d="M422,144a5,5,0,0,1-5-5v-1a5,5,0,0,1,10,0v1A5,5,0,0,1,422,144Z"/><path class="cls-5" d="M445,144a5,5,0,0,1-5-5v-1a5,5,0,0,1,10,0v1A5,5,0,0,1,445,144Z"/><path class="cls-5" d="M468,144a5,5,0,0,1-5-5v-1a5,5,0,0,1,10,0v1A5,5,0,0,1,468,144Z"/><path class="cls-5" d="M422,165a5,5,0,0,1-5-5v-1a5,5,0,0,1,10,0v1A5,5,0,0,1,422,165Z"/><path class="cls-5" d="M445,165a5,5,0,0,1-5-5v-1a5,5,0,0,1,10,0v1A5,5,0,0,1,445,165Z"/><path class="cls-5" d="M468,165a5,5,0,0,1-5-5v-1a5,5,0,0,1,10,0v1A5,5,0,0,1,468,165Z"/></g></svg>