<?xml version="1.0" ?><svg viewBox="0 0 512 512" xmlns="http://www.w3.org/2000/svg"><defs><style>.cls-1{fill:#767c93;}.cls-2{opacity:0.3;}.cls-3{fill:#3f456b;}.cls-4{opacity:0.4;}.cls-5{opacity:0.2;}.cls-6{fill:#fff;}.cls-7{fill:#a6dcf7;}.cls-8{fill:#9398aa;}.cls-9{opacity:0.15;}</style></defs><title/><g id="Colors"><rect class="cls-1" height="479" rx="45.67" ry="45.67" width="479" x="16" y="16"/><g class="cls-2"><path class="cls-3" d="M292.8,499a5,5,0,0,1-5-5V16a5,5,0,0,1,10,0V494A5,5,0,0,1,292.8,499Z"/><path class="cls-3" d="M223.2,499a5,5,0,0,1-5-5V16a5,5,0,0,1,10,0V494A5,5,0,0,1,223.2,499Z"/><path class="cls-3" d="M153.6,499a5,5,0,0,1-5-5V16a5,5,0,0,1,10,0V494A5,5,0,0,1,153.6,499Z"/><path class="cls-3" d="M84,499a5,5,0,0,1-5-5V16a5,5,0,0,1,10,0V494A5,5,0,0,1,84,499Z"/><path class="cls-3" d="M432,499a5,5,0,0,1-5-5V16a5,5,0,0,1,10,0V494A5,5,0,0,1,432,499Z"/><path class="cls-3" d="M362.4,499a5,5,0,0,1-5-5V16a5,5,0,0,1,10,0V494A5,5,0,0,1,362.4,499Z"/></g><g class="cls-4"><path class="cls-3" d="M18,447s3,33,46,33H445s43,3,51-33c0,0,.33,48.33-53.33,48.33H68S23,500,18,447Z"/></g><g class="cls-5"><path class="cls-6" d="M496,64.44s-3-33-46-33H69s-43-3-51,33c0,0-.33-48.34,53.33-48.34H446S491,11.44,496,64.44Z"/></g><path class="cls-7" d="M374.07,302.92c-29,0-33-48.3-33-100.48V190.5c0-.16,0-.31,0-.47.35-3.86.24-15-4.45-20.16a8.42,8.42,0,0,0-6.67-2.72,9.07,9.07,0,0,0-7,2.84c-5,5.22-5.63,16.26-5.46,20.19.21,2.58,1.38,21.09-7.56,30.82a17.89,17.89,0,0,1-13.53,5.83,17.29,17.29,0,0,1-12.79-5.43c-6.36-6.65-7.92-17.79-8.26-24.41h-38a5,5,0,0,1-5-5.24l.65-13.31c0-46.94-2.81-90.36-23-90.36-20.62,0-23,51.64-23,90.48v23.88c0,52.18-4,100.48-33,100.48s-33-48.3-33-100.48V190.5a3.7,3.7,0,0,1,0-.47c.35-3.86.24-15-4.45-20.16a8.45,8.45,0,0,0-6.68-2.72,9,9,0,0,0-7,2.83c-5,5.17-5.63,16.25-5.47,20.21.21,2.6,1.36,21.09-7.56,30.81a17.89,17.89,0,0,1-13.53,5.83,17.31,17.31,0,0,1-12.8-5.43c-6.36-6.65-7.91-17.79-8.25-24.41H16a5,5,0,0,1,0-10H60.28a5,5,0,0,1,5,5.23c-.18,4.39.45,17,5.55,22.28a7.23,7.23,0,0,0,5.56,2.33,7.8,7.8,0,0,0,6.15-2.58c5.2-5.65,5.35-18.75,5-23.33,0-.06,0-.12,0-.18-.08-1.86-.6-18.41,8.21-27.65a19.2,19.2,0,0,1,14.23-5.94,18.47,18.47,0,0,1,14.08,6c8.19,9,7.26,24.79,7,27.56v11.72c0,38.84,2.38,90.48,23,90.48s23-51.64,23-90.48V178.56c0-52.18,4-100.48,33-100.48,30.45,0,33,49.64,33,100.48a2,2,0,0,1,0,.25l-.4,8.18h37.69a5,5,0,0,1,5,5.23c-.19,4.39.44,17,5.55,22.28a7.2,7.2,0,0,0,5.55,2.33,7.82,7.82,0,0,0,6.17-2.59c5.19-5.65,5.32-19.06,5-23.31,0-.07,0-.13,0-.19-.09-1.86-.61-18.41,8.21-27.65A19.17,19.17,0,0,1,330,157.15a18.47,18.47,0,0,1,14.08,6c8.18,9,7.25,24.79,7,27.56v11.72c0,38.84,2.39,90.48,23,90.48s23-51.64,23-90.48V178.56c0-52.18,4-100.48,33-100.48,30.45,0,33,49.64,33,100.48v6.94H495a5,5,0,0,1,0,10H458.08a5,5,0,0,1-5-5V178.56c0-47-2.78-90.48-23-90.48-20.62,0-23,51.64-23,90.48v23.88C407.08,254.62,403.08,302.92,374.07,302.92Z"/><g class="cls-4"><circle class="cls-3" cx="260" cy="427.61" r="36.39"/></g><circle class="cls-8" cx="260" cy="406.68" r="36.39"/><g class="cls-2"><path class="cls-3" d="M227.37,408.23s3.1,20.38,32.63,20.38,32.63-18.93,32.63-18.93,6.22,33.48-32.63,33.48S227.37,408.23,227.37,408.23Z"/></g><g class="cls-9"><path class="cls-6" d="M292.63,406.68S289.53,386.3,260,386.3s-32.63,18.93-32.63,18.93-6.22-33.48,32.63-33.48S292.63,406.68,292.63,406.68Z"/></g><g class="cls-4"><circle class="cls-3" cx="108" cy="427.61" r="36.39"/></g><circle class="cls-8" cx="108" cy="406.68" r="36.39"/><g class="cls-2"><path class="cls-3" d="M75.37,408.23s3.1,20.38,32.63,20.38,32.63-18.93,32.63-18.93,6.22,33.48-32.63,33.48S75.37,408.23,75.37,408.23Z"/></g><g class="cls-9"><path class="cls-6" d="M140.63,406.68S137.53,386.3,108,386.3s-32.63,18.93-32.63,18.93S69.15,371.75,108,371.75,140.63,406.68,140.63,406.68Z"/></g><g class="cls-4"><circle class="cls-3" cx="407" cy="427.61" r="36.39"/></g><circle class="cls-8" cx="407" cy="406.68" r="36.39"/><g class="cls-2"><path class="cls-3" d="M374.37,408.23s3.1,20.38,32.63,20.38,32.63-18.93,32.63-18.93,6.22,33.48-32.63,33.48S374.37,408.23,374.37,408.23Z"/></g><g class="cls-9"><path class="cls-6" d="M439.63,406.68S436.53,386.3,407,386.3s-32.63,18.93-32.63,18.93-6.22-33.48,32.63-33.48S439.63,406.68,439.63,406.68Z"/></g><g class="cls-2"><path class="cls-6" d="M217.8,453.89a5,5,0,0,1-3.54-1.47A64.69,64.69,0,0,1,260,342a5,5,0,0,1,0,10,54.69,54.69,0,0,0-38.67,93.35,5,5,0,0,1-3.53,8.54Z"/></g><g class="cls-2"><path class="cls-6" d="M65.8,453.89a5,5,0,0,1-3.54-1.47,64.69,64.69,0,0,1,0-91.47,65,65,0,0,1,12.46-9.75,5,5,0,0,1,5.15,8.57A55,55,0,0,0,69.33,368a54.69,54.69,0,0,0,0,77.33,5,5,0,0,1-3.53,8.54Z"/></g><path class="cls-7" d="M150.2,453.89a5,5,0,0,1-3.53-8.54A54.69,54.69,0,0,0,108,352h-.54a54.64,54.64,0,0,0-27.59,7.77,5,5,0,1,1-5.15-8.57,64.67,64.67,0,0,1,32.67-9.2H108a64.69,64.69,0,0,1,45.76,110.42A5,5,0,0,1,150.2,453.89Z"/><g class="cls-2"><path class="cls-6" d="M364.8,453.89a5,5,0,0,1-3.54-1.47A64.69,64.69,0,0,1,406.39,342H407A64.27,64.27,0,0,1,452.74,361a65.87,65.87,0,0,1,6.71,7.86,5,5,0,1,1-8.1,5.87A54.79,54.79,0,0,0,407,352h-.54a54.69,54.69,0,0,0-38.13,93.35,5,5,0,0,1-3.53,8.54Z"/></g><path class="cls-7" d="M302.2,453.89a5,5,0,0,1-3.53-8.54A54.69,54.69,0,0,0,260,352a5,5,0,0,1,0-10,64.69,64.69,0,0,1,45.74,110.42A5,5,0,0,1,302.2,453.89Z"/><path class="cls-7" d="M449.2,453.89a5,5,0,0,1-3.53-8.54,54.41,54.41,0,0,0,5.68-70.67,5,5,0,1,1,8.1-5.87,64.71,64.71,0,0,1-6.71,83.61A5,5,0,0,1,449.2,453.89Z"/><path class="cls-7" d="M49,69a5,5,0,0,1-5-5V63a5,5,0,0,1,10,0v1A5,5,0,0,1,49,69Z"/><path class="cls-7" d="M84,69a5,5,0,0,1-5-5V63a5,5,0,0,1,10,0v1A5,5,0,0,1,84,69Z"/><path class="cls-7" d="M119,69a5,5,0,0,1-5-5V63a5,5,0,0,1,10,0v1A5,5,0,0,1,119,69Z"/></g><g id="Lines"><path class="cls-3" d="M450.18,500H62c-27.65,0-51-23.65-51-51.65V61.19C11,33.69,32.85,12.12,61.82,11H450.18C478.2,11,501,33.51,501,61.19V448.35a51.71,51.71,0,0,1-14.88,36.28A50,50,0,0,1,450.18,500ZM62.11,21C38.28,22,21,38.85,21,61.19V448.35C21,470.93,39.78,490,62,490H450.18C472.3,490,491,470.93,491,448.35V61.19C491,39,472.69,21,450.18,21Z"/><path class="cls-3" d="M260,448.08a41.4,41.4,0,1,1,41.39-41.4A41.44,41.44,0,0,1,260,448.08Zm0-72.79a31.4,31.4,0,1,0,31.39,31.39A31.42,31.42,0,0,0,260,375.29Z"/><path class="cls-3" d="M260,412a5,5,0,0,1-5-5V371.75a5,5,0,0,1,10,0V407A5,5,0,0,1,260,412Z"/><path class="cls-3" d="M108,448.08a41.4,41.4,0,1,1,41.39-41.4A41.44,41.44,0,0,1,108,448.08Zm0-72.79a31.4,31.4,0,1,0,31.39,31.39A31.42,31.42,0,0,0,108,375.29Z"/><path class="cls-3" d="M108,412a5,5,0,0,1-4.36-2.55l-18-32a5,5,0,1,1,8.72-4.9l18,32A5,5,0,0,1,108,412Z"/><path class="cls-3" d="M407,448.08a41.4,41.4,0,1,1,41.39-41.4A41.44,41.44,0,0,1,407,448.08Zm0-72.79a31.4,31.4,0,1,0,31.39,31.39A31.42,31.42,0,0,0,407,375.29Z"/><path class="cls-3" d="M407,412a5,5,0,0,1-3-9l29-22a5,5,0,0,1,6,8l-29,22A4.94,4.94,0,0,1,407,412Z"/></g></svg>