<?xml version="1.0" ?><svg viewBox="0 0 512 512" xmlns="http://www.w3.org/2000/svg"><defs><style>.cls-1{fill:#f5f6f7;}.cls-2{opacity:0.2;}.cls-3{fill:#3f456b;}.cls-4{fill:#767c93;}.cls-5{opacity:0.3;}.cls-6{fill:#e95a6b;}.cls-7{fill:#9ed8cd;}.cls-8{opacity:0.1;}.cls-9{opacity:0.5;}.cls-10{fill:#fff;}.cls-11{opacity:0.15;}.cls-12{fill:#9398aa;}</style></defs><title/><g id="Colors"><rect class="cls-1" height="138" width="383" x="66" y="358"/><g class="cls-2"><rect class="cls-3" height="17" width="383" x="66" y="358"/></g><polyline class="cls-4" points="137 358 137 454 102 454 102 358"/><polyline class="cls-4" points="192 358 192 454 157 454 157 358"/><polyline class="cls-4" points="301 358 301 454 266 454 266 358"/><polyline class="cls-4" points="356 358 356 454 321 454 321 358"/><polyline class="cls-4" points="410 358 410 454 375 454 375 358"/><g class="cls-5"><rect class="cls-3" height="17" width="35" x="102" y="437"/></g><g class="cls-5"><rect class="cls-3" height="17" width="35" x="102" y="358"/></g><g class="cls-5"><rect class="cls-3" height="17" width="35" x="157" y="437"/></g><g class="cls-5"><rect class="cls-3" height="17" width="35" x="157" y="358"/></g><g class="cls-5"><rect class="cls-3" height="17" width="35" x="266" y="437"/></g><g class="cls-5"><rect class="cls-3" height="17" width="35" x="266" y="358"/></g><g class="cls-5"><rect class="cls-3" height="17" width="35" x="321" y="437"/></g><g class="cls-5"><rect class="cls-3" height="17" width="35" x="321" y="358"/></g><g class="cls-5"><rect class="cls-3" height="17" width="35" x="375" y="437"/></g><g class="cls-5"><rect class="cls-3" height="17" width="35" x="375" y="358"/></g><g class="cls-2"><rect class="cls-3" height="17" width="383" x="66" y="479"/></g><g data-name="&lt;编组&gt;" id="_编组_"><path class="cls-4" d="M497,196V476a20.06,20.06,0,0,1-20,20H449V358.38H65.57V496H37a20.06,20.06,0,0,1-20-20V196a20.06,20.06,0,0,1,20-20H477A20.06,20.06,0,0,1,497,196Z"/></g><circle class="cls-6" cx="449" cy="230" r="20"/><rect class="cls-7" height="86" width="144" x="260" y="209"/><g class="cls-8"><rect class="cls-3" height="17" width="147" x="259" y="209"/></g><g class="cls-9"><path class="cls-10" d="M283,299a5,5,0,0,1-5-5V273.47a5,5,0,0,1,10,0V294A5,5,0,0,1,283,299Z"/><path class="cls-10" d="M307,299a5,5,0,0,1-5-5V273.47a5,5,0,0,1,10,0V294A5,5,0,0,1,307,299Z"/><path class="cls-10" d="M330,299a5,5,0,0,1-5-5V262.53a5,5,0,0,1,10,0V294A5,5,0,0,1,330,299Z"/><path class="cls-10" d="M354,299a5,5,0,0,1-5-5V262.53a5,5,0,0,1,10,0V294A5,5,0,0,1,354,299Z"/><path class="cls-10" d="M377,299a5,5,0,0,1-5-5V242a5,5,0,0,1,10,0v52A5,5,0,0,1,377,299Z"/></g><g class="cls-9"><path class="cls-3" d="M21,464s-1,17,16,17H64v15H34.83S12,497,21,464Z"/></g><g class="cls-2"><path class="cls-10" d="M473,176H34.83S12,175,21,208c0,0-1-17,16-17H473s22-1,22,16c0,0,7-31-22-31"/></g><g class="cls-9"><path class="cls-3" d="M494.76,464s1.07,17-17,17H449v15h31S504.34,497,494.76,464Z"/></g><g class="cls-9"><path class="cls-3" d="M61,330a5,5,0,0,1-5-5V208a5,5,0,0,1,10,0V325A5,5,0,0,1,61,330Z"/><path class="cls-3" d="M111.33,330a5,5,0,0,1-5-5V208a5,5,0,0,1,10,0V325A5,5,0,0,1,111.33,330Z"/><path class="cls-3" d="M212,330a5,5,0,0,1-5-5V208a5,5,0,0,1,10,0V325A5,5,0,0,1,212,330Z"/><path class="cls-3" d="M161.67,330a5,5,0,0,1-5-5V208a5,5,0,0,1,10,0V325A5,5,0,0,1,161.67,330Z"/></g><g class="cls-11"><path class="cls-3" d="M430.18,226.47s1.17,14.12,18.82,14.12,18.82-12.94,18.82-12.94S470.18,250,449,250,430.18,226.47,430.18,226.47Z"/></g><g class="cls-11"><path class="cls-10" d="M467.82,233.53s-1.17-14.12-18.82-14.12-18.82,12.94-18.82,12.94S427.82,210,449,210,467.82,233.53,467.82,233.53Z"/></g><path class="cls-4" d="M69,176V164a10,10,0,0,1,10-10H184a10,10,0,0,1,10,10v12"/><g class="cls-5"><path class="cls-3" d="M268.16,336.24a11.46,11.46,0,1,1,6.46-2A11.48,11.48,0,0,1,268.16,336.24Zm0-12.94A1.47,1.47,0,1,0,269,326a1.48,1.48,0,0,0,.39-2.05,1.44,1.44,0,0,0-.95-.62Z"/><path class="cls-3" d="M300.14,336.24a11.46,11.46,0,1,1,6.46-2A11.48,11.48,0,0,1,300.14,336.24Zm0-12.94A1.47,1.47,0,1,0,301,326a1.48,1.48,0,0,0,.39-2.05,1.44,1.44,0,0,0-.95-.62Z"/><path class="cls-3" d="M332.12,336.25a11.81,11.81,0,0,1-2.13-.2,11.4,11.4,0,1,1,2.13.2Zm0-12.95a1.47,1.47,0,0,0-1.21,2.3,1.44,1.44,0,0,0,.95.62,1.47,1.47,0,0,0,1.1-.23,1.49,1.49,0,0,0,.39-2.05,1.44,1.44,0,0,0-.95-.62Z"/><path class="cls-3" d="M364.1,336.24a11.46,11.46,0,1,1,6.46-2A11.48,11.48,0,0,1,364.1,336.24Zm0-12.94a1.47,1.47,0,1,0,.84,2.69,1.48,1.48,0,0,0,.39-2.05,1.44,1.44,0,0,0-.95-.62Z"/><path class="cls-3" d="M396.08,336.24a11.46,11.46,0,1,1,6.46-2A11.48,11.48,0,0,1,396.08,336.24Zm0-12.94a1.49,1.49,0,0,0-.82.25,1.48,1.48,0,0,0-.39,2.05,1.49,1.49,0,0,0,2.05.39,1.48,1.48,0,0,0,.39-2.05,1.44,1.44,0,0,0-.95-.62Z"/></g><rect class="cls-12" height="38" rx="10" ry="10" width="29.5" x="197.25" y="225"/><g class="cls-5"><rect class="cls-3" height="14" width="27" x="199" y="248"/></g><rect class="cls-12" height="38" rx="10" ry="10" width="29.5" x="147.25" y="263"/><g class="cls-5"><rect class="cls-3" height="14" width="27" x="149" y="286"/></g><rect class="cls-12" height="38" rx="10" ry="10" width="29.5" x="96.25" y="244"/><g class="cls-5"><rect class="cls-3" height="14" width="27" x="98" y="267"/></g><rect class="cls-12" height="38" rx="10" ry="10" width="29.5" x="46.25" y="277"/><g class="cls-5"><rect class="cls-3" height="14" width="27" x="48" y="300"/></g><g class="cls-5" data-name="&lt;编组&gt;" id="_编组_2"><polygon class="cls-10" points="375 209 289 295 260 295 260 209 375 209"/></g><path class="cls-7" d="M396,330a5,5,0,0,1-5-5v-1a5,5,0,0,1,10,0v1A5,5,0,0,1,396,330Z"/></g><g id="Lines"><path class="cls-3" d="M477,501H37a25,25,0,0,1-25-25V196a25,25,0,0,1,25-25H477a25,25,0,0,1,25,25V476A25,25,0,0,1,477,501ZM37,181a15,15,0,0,0-15,15V476a15,15,0,0,0,15,15H477a15,15,0,0,0,15-15V196a15,15,0,0,0-15-15Z"/><path class="cls-3" d="M404,300H260a5,5,0,0,1-5-5V209a5,5,0,0,1,5-5H404a5,5,0,0,1,5,5v86A5,5,0,0,1,404,300ZM265,290H399V214H265Z"/><path class="cls-3" d="M449,499.42a5,5,0,0,1-5-5v-131H70.57v131a5,5,0,0,1-10,0v-136a5,5,0,0,1,5-5H449a5,5,0,0,1,5,5v136A5,5,0,0,1,449,499.42Z"/><path class="cls-3" d="M119.53,499.42a5,5,0,0,1-5-5V454a5,5,0,0,1,10,0v40.42A5,5,0,0,1,119.53,499.42Z"/><path class="cls-3" d="M174.63,499.42a5,5,0,0,1-5-5V454a5,5,0,0,1,10,0v40.42A5,5,0,0,1,174.63,499.42Z"/><path class="cls-3" d="M229.73,499.42a5,5,0,0,1-5-5v-136a5,5,0,0,1,10,0v136A5,5,0,0,1,229.73,499.42Z"/><path class="cls-3" d="M283.69,499.42a5,5,0,0,1-5-5V454a5,5,0,0,1,10,0v40.42A5,5,0,0,1,283.69,499.42Z"/><path class="cls-3" d="M338.79,499.42a5,5,0,0,1-5-5V454a5,5,0,0,1,10,0v40.42A5,5,0,0,1,338.79,499.42Z"/><path class="cls-3" d="M392.75,499.42a5,5,0,0,1-5-5V454a5,5,0,0,1,10,0v40.42A5,5,0,0,1,392.75,499.42Z"/><path class="cls-3" d="M137,459H102a5,5,0,0,1-5-5V359a5,5,0,0,1,10,0v90h25V359a5,5,0,0,1,10,0v95A5,5,0,0,1,137,459Z"/><path class="cls-3" d="M192,459H157a5,5,0,0,1-5-5V359a5,5,0,0,1,10,0v90h25V359a5,5,0,0,1,10,0v95A5,5,0,0,1,192,459Z"/><path class="cls-3" d="M301,459H266a5,5,0,0,1-5-5V359a5,5,0,0,1,10,0v90h25V359a5,5,0,0,1,10,0v95A5,5,0,0,1,301,459Z"/><path class="cls-3" d="M356,459H321a5,5,0,0,1-5-5V359a5,5,0,0,1,10,0v90h25V359a5,5,0,0,1,10,0v95A5,5,0,0,1,356,459Z"/><path class="cls-3" d="M410,459H375a5,5,0,0,1-5-5V359a5,5,0,0,1,10,0v90h25V359a5,5,0,0,1,10,0v95A5,5,0,0,1,410,459Z"/><path class="cls-3" d="M194,181a5,5,0,0,1-5-5V164a5,5,0,0,0-5-5H79a5,5,0,0,0-5,5v12a5,5,0,0,1-10,0V164a15,15,0,0,1,15-15H184a15,15,0,0,1,15,15v12A5,5,0,0,1,194,181Z"/><path class="cls-3" d="M97.5,159a5,5,0,0,1-5-5V129.06c0-1.81-.22-23.58,14.53-38.81C116.2,80.8,129,76,145,76H385.2c.19,0,19.66.57,32.41-11.72C425.17,57,429,46.46,429,33V16a5,5,0,0,1,10,0V33c0,16.33-4.89,29.3-14.52,38.55C409,86.39,386.93,86.07,384.91,86H145c-13.22,0-23.57,3.77-30.78,11.21-12.17,12.56-11.73,31.44-11.72,31.63V154A5,5,0,0,1,97.5,159Z"/><path class="cls-3" d="M145.5,159a5,5,0,0,1-5-5v-8.89c-.07-1.68-.23-13.38,7.68-21.78C153.39,117.8,160.73,115,170,115H305l.4,0c.07,0,9.14.58,14.79-4.68,3.19-3,4.81-7.46,4.81-13.34V17a5,5,0,0,1,10,0V97c0,8.81-2.71,15.78-8.07,20.73-8.36,7.71-20.2,7.38-22.09,7.27H170c-6.4,0-11.29,1.75-14.54,5.19-5.34,5.67-5,14.42-5,14.51s0,.2,0,.3v9A5,5,0,0,1,145.5,159Z"/><path class="cls-3" d="M216.75,268h-9.5a15,15,0,0,1-15-15V235a15,15,0,0,1,15-15h9.5a15,15,0,0,1,15,15v18A15,15,0,0,1,216.75,268Zm-9.5-38a5,5,0,0,0-5,5v18a5,5,0,0,0,5,5h9.5a5,5,0,0,0,5-5V235a5,5,0,0,0-5-5Z"/><path class="cls-3" d="M166.75,306h-9.5a15,15,0,0,1-15-15V273a15,15,0,0,1,15-15h9.5a15,15,0,0,1,15,15v18A15,15,0,0,1,166.75,306Zm-9.5-38a5,5,0,0,0-5,5v18a5,5,0,0,0,5,5h9.5a5,5,0,0,0,5-5V273a5,5,0,0,0-5-5Z"/><path class="cls-3" d="M115.75,287h-9.5a15,15,0,0,1-15-15V254a15,15,0,0,1,15-15h9.5a15,15,0,0,1,15,15v18A15,15,0,0,1,115.75,287Zm-9.5-38a5,5,0,0,0-5,5v18a5,5,0,0,0,5,5h9.5a5,5,0,0,0,5-5V254a5,5,0,0,0-5-5Z"/><path class="cls-3" d="M65.75,320h-9.5a15,15,0,0,1-15-15V287a15,15,0,0,1,15-15h9.5a15,15,0,0,1,15,15v18A15,15,0,0,1,65.75,320Zm-9.5-38a5,5,0,0,0-5,5v18a5,5,0,0,0,5,5h9.5a5,5,0,0,0,5-5V287a5,5,0,0,0-5-5Z"/><path class="cls-3" d="M449,288a5,5,0,0,1-5-5v-1a5,5,0,0,1,10,0v1A5,5,0,0,1,449,288Z"/><path class="cls-3" d="M449,320a5,5,0,0,1-5-5v-1a5,5,0,0,1,10,0v1A5,5,0,0,1,449,320Z"/><path class="cls-3" d="M268,330a5,5,0,0,1-5-5v-1a5,5,0,0,1,10,0v1A5,5,0,0,1,268,330Z"/><path class="cls-3" d="M300,330a5,5,0,0,1-5-5v-1a5,5,0,0,1,10,0v1A5,5,0,0,1,300,330Z"/><path class="cls-3" d="M332,330a5,5,0,0,1-5-5v-1a5,5,0,0,1,10,0v1A5,5,0,0,1,332,330Z"/><path class="cls-3" d="M364,330a5,5,0,0,1-5-5v-1a5,5,0,0,1,10,0v1A5,5,0,0,1,364,330Z"/><path class="cls-3" d="M449,255a25,25,0,1,1,25-25A25,25,0,0,1,449,255Zm0-40a15,15,0,1,0,15,15A15,15,0,0,0,449,215Z"/></g></svg>